ExploreSansVariable-ExtraLight.ufo
<glyph name="quotedbl" format="2">
  <advance width="278"/>
  <unicode hex="0022"/>
  <outline>
    <contour>
      <point x="37.2" y="923.2" type="line"/>
      <point x="171.6" y="772" type="line"/>
      <point x="69.6" y="368.8" type="line"/>
      <point x="-16.8" y="520" type="line"/>
    </contour>
    <contour>
      <point x="504.4" y="923.2" type="line"/>
      <point x="638.8" y="772" type="line"/>
      <point x="536.8" y="368.8" type="line"/>
      <point x="450.4" y="520" type="line"/>
    </contour>
  </outline>
</glyph>
<glyph name="numbersign" format="2">
  <advance width="609"/>
  <unicode hex="0023"/>
  <outline>
    <contour>
      <point x="303.2" y="724" type="line"/>
      <point x="336.4" y="724" type="line"/>
      <point x="264.6" y="487" type="line"/>
      <point x="425.4" y="487" type="line"/>
      <point x="497.2" y="724" type="line"/>
      <point x="530.4" y="724" type="line"/>
      <point x="458.6" y="487" type="line"/>
      <point x="546.4" y="487" type="line"/>
      <point x="546.4" y="474.2" type="line"/>
      <point x="451" y="474.2" type="line"/>
      <point x="386" y="250.6" type="line"/>
      <point x="546.4" y="250.6" type="line"/>
      <point x="546.4" y="237.8" type="line"/>
      <point x="376.8" y="237.8" type="line"/>
      <point x="305.6" y="0" type="line"/>
      <point x="272.4" y="0" type="line"/>
      <point x="343.6" y="237.8" type="line"/>
      <point x="182.8" y="237.8" type="line"/>
      <point x="111.6" y="0" type="line"/>
      <point x="78.4" y="0" type="line"/>
      <point x="149.6" y="237.8" type="line"/>
      <point x="62.4" y="237.8" type="line"/>
      <point x="62.4" y="250.6" type="line"/>
      <point x="158.8" y="250.6" type="line"/>
      <point x="223.8" y="474.2" type="line"/>
      <point x="62.4" y="474.2" type="line"/>
      <point x="62.4" y="487" type="line"/>
      <point x="231.4" y="487" type="line"/>
    </contour>
    <contour>
      <point x="352.8" y="250.6" type="line"/>
      <point x="417.8" y="474.2" type="line"/>
      <point x="257" y="474.2" type="line"/>
      <point x="192" y="250.6" type="line"/>
    </contour>
  </outline>
</glyph>
<glyph name="ampersand" format="2">
  <advance width="683"/>
  <unicode hex="0026"/>
  <outline>
    <contour>
      <point x="314" y="716" type="curve" smooth="yes"/>
      <point x="385" y="716"/>
      <point x="446.6" y="675.6"/>
      <point x="471" y="648.2" type="curve"/>
      <point x="450.8" y="635.6" type="line"/>
      <point x="407" y="670"/>
      <point x="356" y="697"/>
      <point x="286.4" y="697" type="curve" smooth="yes"/>
      <point x="193" y="697"/>
      <point x="141.4" y="634.4"/>
      <point x="141.4" y="572" type="curve" smooth="yes"/>
      <point x="141.4" y="515.2"/>
      <point x="159" y="491.6"/>
      <point x="196.8" y="441.8" type="curve"/>
      <point x="572.6" y="0" type="line"/>
      <point x="543.8" y="0" type="line"/>
      <point x="205.2" y="396.8" type="line"/>
      <point x="140" y="478"/>
      <point x="119.6" y="510.2"/>
      <point x="119.6" y="574" type="curve" smooth="yes"/>
      <point x="119.6" y="623.2"/>
      <point x="186.4" y="716"/>
    </contour>
    <contour>
      <point x="205" y="402.6" type="line"/>
      <point x="218.4" y="383.8" type="line"/>
      <point x="159.8" y="338.6" type="line" smooth="yes"/>
      <point x="96.2" y="289"/>
      <point x="71.8" y="218.6"/>
      <point x="71.8" y="159" type="curve" smooth="yes"/>
      <point x="71.8" y="71.8"/>
      <point x="125.6" y="12.2"/>
      <point x="237.6" y="12.2" type="curve" smooth="yes"/>
      <point x="327.2" y="12.2"/>
      <point x="420.2" y="68.2"/>
      <point x="436.8" y="137.8" type="curve"/>
      <point x="507.6" y="420.2" type="line"/>
      <point x="646.2" y="409" type="line"/>
      <point x="646.2" y="380.2" type="line"/>
      <point x="528.8" y="388.2" type="line"/>
      <point x="516.6" y="341"/>
      <point x="479.2" y="200.4"/>
      <point x="466.2" y="145.2" type="curve"/>
      <point x="451.8" y="70"/>
      <point x="346.4" y="-8"/>
      <point x="250.6" y="-8" type="curve" smooth="yes"/>
      <point x="119.6" y="-8"/>
      <point x="57.6" y="72.8"/>
      <point x="57.6" y="169.2" type="curve" smooth="yes"/>
      <point x="57.6" y="243.2"/>
      <point x="100.2" y="314.6"/>
      <point x="157.4" y="363.4" type="curve" smooth="yes"/>
    </contour>
  </outline>
</glyph>
<glyph name="parenleft" format="2">
  <advance width="238"/>
  <unicode hex="0028"/>
  <outline>
    <contour>
      <point x="197" y="800" type="curve"/>
      <point x="230.6" y="800" type="line"/>
      <point x="216.4" y="796.4"/>
      <point x="36.6" y="673.6"/>
      <point x="36.6" y="366.2" type="curve" smooth="yes"/>
      <point x="36.6" y="280.2"/>
      <point x="48.4" y="107.4"/>
      <point x="229" y="-64" type="curve"/>
      <point x="184.4" y="-64" type="line"/>
      <point x="75.6" y="23.8"/>
      <point x="27" y="209.6"/>
      <point x="27" y="366.2" type="curve" smooth="yes"/>
      <point x="27" y="572"/>
      <point x="76" y="702.2"/>
    </contour>
  </outline>
</glyph>
<glyph name="parenright" format="2">
  <advance width="240"/>
  <unicode hex="0029"/>
  <outline>
    <contour>
      <point x="9.4" y="800" type="curve"/>
      <point x="51" y="800" type="line"/>
      <point x="47.2" y="803"/>
      <point x="213" y="706.4"/>
      <point x="213" y="371" type="curve" smooth="yes"/>
      <point x="213" y="172.8"/>
      <point x="162.8" y="30.2"/>
      <point x="44.4" y="-64" type="curve"/>
      <point x="7.8" y="-64" type="line"/>
      <point x="55.6" y="-30.2"/>
      <point x="200.2" y="105.8"/>
      <point x="200.2" y="371" type="curve" smooth="yes"/>
      <point x="200.2" y="529.6"/>
      <point x="159.6" y="678"/>
    </contour>
  </outline>
</glyph>
<glyph name="plus" format="2">
  <advance width="617"/>
  <unicode hex="002B"/>
  <outline>
    <contour>
      <point x="272.4" y="478.4" type="line"/>
      <point x="323.6" y="478.4" type="line"/>
      <point x="323.6" y="292.6" type="line"/>
      <point x="511.2" y="292.6" type="line"/>
      <point x="511.2" y="241.4" type="line"/>
      <point x="323.6" y="241.4" type="line"/>
      <point x="323.6" y="54" type="line"/>
      <point x="272.4" y="54" type="line"/>
      <point x="272.4" y="241.4" type="line"/>
      <point x="91.2" y="241.4" type="line"/>
      <point x="91.2" y="292.6" type="line"/>
      <point x="272.4" y="292.6" type="line"/>
    </contour>
  </outline>
</glyph>
<glyph name="comma" format="2">
  <advance width="100"/>
  <unicode hex="002C"/>
  <outline>
    <contour>
      <point x="27.2" y="210.6" type="line"/>
      <point x="180.8" y="77.4" type="line"/>
      <point x="7.40001" y="-285.8" type="line"/>
      <point x="-30" y="-152.6" type="line"/>
    </contour>
  </outline>
</glyph>
<glyph name="period" format="2">
  <advance width="211"/>
  <unicode hex="002E"/>
  <outline>
    <contour>
      <point x="101" y="71.2" type="curve" smooth="yes"/>
      <point x="131.4" y="71.2"/>
      <point x="142.2" y="44.2"/>
      <point x="142.2" y="31.6" type="curve" smooth="yes"/>
      <point x="142.2" y="19.6"/>
      <point x="131.4" y="-8"/>
      <point x="101" y="-8" type="curve" smooth="yes"/>
      <point x="69" y="-8"/>
      <point x="63" y="22.8"/>
      <point x="63" y="31.6" type="curve" smooth="yes"/>
      <point x="63" y="41"/>
      <point x="69" y="71.2"/>
    </contour>
  </outline>
</glyph>
<glyph name="slash" format="2">
  <advance width="346"/>
  <unicode hex="002F"/>
  <outline>
    <contour>
      <point x="335.2" y="772" type="line"/>
      <point x="357.2" y="772" type="line"/>
      <point x="11.2" y="-34" type="line"/>
      <point x="-10.8" y="-34" type="line"/>
    </contour>
  </outline>
</glyph>
<glyph name="zero" format="2">
  <advance width="523"/>
  <unicode hex="0030"/>
  <outline>
    <contour>
      <point x="259.6" y="708" type="curve" smooth="yes"/>
      <point x="164.4" y="708"/>
      <point x="75.2" y="668"/>
      <point x="75.2" y="358" type="curve" smooth="yes"/>
      <point x="75.2" y="118"/>
      <point x="127" y="-0.599998"/>
      <point x="258.6" y="-0.599998" type="curve" smooth="yes"/>
      <point x="392.2" y="-0.599998"/>
      <point x="447.2" y="120.8"/>
      <point x="447.2" y="359.4" type="curve" smooth="yes"/>
      <point x="447.2" y="693"/>
      <point x="333.4" y="708"/>
    </contour>
    <contour>
      <point x="259" y="716" type="curve" smooth="yes"/>
      <point x="416.8" y="716"/>
      <point x="460.6" y="587.4"/>
      <point x="460.6" y="362.4" type="curve" smooth="yes"/>
      <point x="460.6" y="234.4"/>
      <point x="472.8" y="-7"/>
      <point x="258" y="-7" type="curve" smooth="yes"/>
      <point x="102.8" y="-7"/>
      <point x="62.4" y="124.2"/>
      <point x="62.4" y="358.2" type="curve" smooth="yes"/>
      <point x="62.4" y="585.8"/>
      <point x="102.8" y="716"/>
    </contour>
  </outline>
</glyph>
<glyph name="one" format="2">
  <advance width="504"/>
  <unicode hex="0031"/>
  <outline>
    <contour>
      <point x="236.8" y="708" type="line"/>
      <point x="275.2" y="708" type="line"/>
      <point x="275.2" y="14.4" type="line"/>
      <point x="424.6" y="14.4" type="line"/>
      <point x="424.6" y="0" type="line"/>
      <point x="84.2" y="0" type="line"/>
      <point x="84.2" y="14.4" type="line"/>
      <point x="262.4" y="14.4" type="line"/>
      <point x="262.4" y="692" type="line"/>
      <point x="74" y="589.2" type="line"/>
      <point x="74" y="620" type="line"/>
    </contour>
  </outline>
</glyph>
<glyph name="two" format="2">
  <advance width="523"/>
  <unicode hex="0032"/>
  <outline>
    <contour>
      <point x="67" y="638.8" type="line"/>
      <point x="126" y="693.8"/>
      <point x="174" y="716"/>
      <point x="240" y="716" type="curve" smooth="yes"/>
      <point x="347.2" y="716"/>
      <point x="439.4" y="640"/>
      <point x="439.4" y="537.2" type="curve" smooth="yes"/>
      <point x="439.4" y="470.8"/>
      <point x="421.4" y="417.8"/>
      <point x="344.6" y="325.6" type="curve"/>
      <point x="351.8" y="332.2"/>
      <point x="71.2" y="20.2"/>
      <point x="71.2" y="19.2" type="curve"/>
      <point x="442" y="19.2" type="line"/>
      <point x="442.6" y="0" type="line"/>
      <point x="72.8" y="0" type="line"/>
      <point x="72.8" y="35.6" type="line"/>
      <point x="310.2" y="313.6" type="line" smooth="yes"/>
      <point x="411.6" y="431.2"/>
      <point x="421.8" y="456"/>
      <point x="421.8" y="545.6" type="curve" smooth="yes"/>
      <point x="421.8" y="643.2"/>
      <point x="343" y="703"/>
      <point x="245" y="703" type="curve" smooth="yes"/>
      <point x="184" y="703"/>
      <point x="123.8" y="670.2"/>
      <point x="74.8" y="621.2" type="curve"/>
    </contour>
  </outline>
</glyph>
<glyph name="three" format="2">
  <advance width="523"/>
  <unicode hex="0033"/>
  <outline>
    <contour>
      <point x="73.8" y="708" type="line"/>
      <point x="424.6" y="708" type="line"/>
      <point x="424.6" y="674.4" type="line"/>
      <point x="204.2" y="433" type="line"/>
      <point x="387.6" y="428.2"/>
      <point x="467.2" y="332.4"/>
      <point x="467.2" y="212.2" type="curve"/>
      <point x="467.2" y="218"/>
      <point x="512.8" y="-8"/>
      <point x="247.2" y="-8" type="curve" smooth="yes"/>
      <point x="174" y="-8"/>
      <point x="90" y="25.4"/>
      <point x="24.4" y="84.4" type="curve"/>
      <point x="32.2" y="98.4" type="line"/>
      <point x="97.2" y="31.4"/>
      <point x="162.6" y="3.2"/>
      <point x="236.4" y="3.2" type="curve" smooth="yes"/>
      <point x="389.8" y="3.2"/>
      <point x="454.4" y="64"/>
      <point x="454.4" y="217.2" type="curve" smooth="yes"/>
      <point x="454.4" y="337.6"/>
      <point x="389" y="402"/>
      <point x="248" y="402" type="curve" smooth="yes"/>
      <point x="173.4" y="402" type="line"/>
      <point x="185.8" y="435" type="line"/>
      <point x="416" y="695.6" type="line"/>
      <point x="73.8" y="695.6" type="line"/>
    </contour>
  </outline>
</glyph>
<glyph name="four" format="2">
  <advance width="550"/>
  <unicode hex="0034"/>
  <outline>
    <contour>
      <point x="328" y="708" type="line"/>
      <point x="360" y="708" type="line"/>
      <point x="97" y="213" type="line"/>
      <point x="418" y="214" type="line"/>
      <point x="418" y="484" type="line"/>
      <point x="450" y="484" type="line"/>
      <point x="450" y="0" type="line"/>
      <point x="418" y="0" type="line"/>
      <point x="418" y="186" type="line"/>
      <point x="64" y="186" type="line"/>
      <point x="64" y="213" type="line"/>
    </contour>
  </outline>
</glyph>
<glyph name="five" format="2">
  <advance width="523"/>
  <unicode hex="0035"/>
  <outline>
    <contour>
      <point x="113" y="708" type="line"/>
      <point x="421.6" y="708" type="line"/>
      <point x="421.6" y="690.4" type="line"/>
      <point x="128" y="690.4" type="line"/>
      <point x="118.6" y="359.6" type="line"/>
      <point x="160.2" y="421"/>
      <point x="208.4" y="442.8"/>
      <point x="267.4" y="442.8" type="curve" smooth="yes"/>
      <point x="385.8" y="442.8"/>
      <point x="452" y="347.6"/>
      <point x="452" y="216" type="curve" smooth="yes"/>
      <point x="452" y="76.8"/>
      <point x="354.8" y="-8"/>
      <point x="236.8" y="-8" type="curve" smooth="yes"/>
      <point x="174" y="-8"/>
      <point x="132" y="5"/>
      <point x="56.4" y="69" type="curve"/>
      <point x="80.8" y="77.2" type="line"/>
      <point x="166" y="10.6"/>
      <point x="211.6" y="1.4"/>
      <point x="247.6" y="1.4" type="curve" smooth="yes"/>
      <point x="376" y="1.4"/>
      <point x="439.2" y="75.4"/>
      <point x="439.2" y="210.8" type="curve" smooth="yes"/>
      <point x="439.2" y="354"/>
      <point x="384.6" y="420"/>
      <point x="261.6" y="420" type="curve" smooth="yes"/>
      <point x="215.2" y="420"/>
      <point x="165.6" y="405.4"/>
      <point x="118.8" y="368.8" type="curve"/>
      <point x="101.4" y="368.8" type="line"/>
    </contour>
  </outline>
</glyph>
<glyph name="six" format="2">
  <advance width="523"/>
  <unicode hex="0036"/>
  <outline>
    <contour>
      <point x="298.8" y="716" type="curve" smooth="yes"/>
      <point x="337.2" y="716"/>
      <point x="396" y="694.6"/>
      <point x="452.8" y="658.8" type="curve"/>
      <point x="447.8" y="651.2" type="line"/>
      <point x="404" y="691.6"/>
      <point x="358.8" y="707.6"/>
      <point x="292.6" y="707.6" type="curve" smooth="yes"/>
      <point x="140.8" y="707.6"/>
      <point x="70.6" y="582"/>
      <point x="70.6" y="311.4" type="curve"/>
      <point x="90.6" y="383.6"/>
      <point x="169.2" y="438.6"/>
      <point x="255.4" y="438.6" type="curve" smooth="yes"/>
      <point x="391" y="438.6"/>
      <point x="473.4" y="355.2"/>
      <point x="473.4" y="217" type="curve" smooth="yes"/>
      <point x="473.4" y="93.4"/>
      <point x="377" y="-8"/>
      <point x="262.8" y="-8" type="curve" smooth="yes"/>
      <point x="116.8" y="-8"/>
      <point x="59.2" y="84.4"/>
      <point x="59.2" y="312" type="curve" smooth="yes"/>
      <point x="59.2" y="595.2"/>
      <point x="130" y="716"/>
    </contour>
    <contour>
      <point x="262.8" y="415.2" type="curve" smooth="yes"/>
      <point x="137.2" y="415.2"/>
      <point x="72" y="350.2"/>
      <point x="72" y="225.4" type="curve" smooth="yes"/>
      <point x="72" y="65"/>
      <point x="126.4" y="-0.400002"/>
      <point x="262.2" y="-0.400002" type="curve" smooth="yes"/>
      <point x="389.6" y="-0.400002"/>
      <point x="460.6" y="75.6"/>
      <point x="460.6" y="210.4" type="curve" smooth="yes"/>
      <point x="460.6" y="343.2"/>
      <point x="391.6" y="415.2"/>
    </contour>
  </outline>
</glyph>
<glyph name="eight" format="2">
  <advance width="523"/>
  <unicode hex="0038"/>
  <outline>
    <contour>
      <point x="260.8" y="716" type="curve" smooth="yes"/>
      <point x="377" y="716"/>
      <point x="449" y="638.6"/>
      <point x="449" y="516" type="curve" smooth="yes"/>
      <point x="449" y="434.2"/>
      <point x="400" y="367.8"/>
      <point x="337" y="369.4" type="curve"/>
      <point x="409.8" y="359.8"/>
      <point x="463.8" y="285.8"/>
      <point x="463.8" y="196.4" type="curve" smooth="yes"/>
      <point x="463.8" y="71"/>
      <point x="385.4" y="-7"/>
      <point x="260.8" y="-7" type="curve" smooth="yes"/>
      <point x="137.2" y="-7"/>
      <point x="59.2" y="68.4"/>
      <point x="59.2" y="193.2" type="curve" smooth="yes"/>
      <point x="59.2" y="302.8"/>
      <point x="102.6" y="341.6"/>
      <point x="184" y="369.4" type="curve"/>
      <point x="110.8" y="369.4"/>
      <point x="74" y="418.2"/>
      <point x="74" y="516" type="curve" smooth="yes"/>
      <point x="74" y="641.2"/>
      <point x="144.6" y="716"/>
    </contour>
    <contour>
      <point x="259" y="692" type="curve" smooth="yes"/>
      <point x="155.2" y="692"/>
      <point x="96.4" y="631.4"/>
      <point x="96.4" y="526.8" type="curve" smooth="yes"/>
      <point x="96.4" y="436.6"/>
      <point x="158" y="382.8"/>
      <point x="260.2" y="382.8" type="curve" smooth="yes"/>
      <point x="365" y="382.8"/>
      <point x="425.4" y="436"/>
      <point x="425.4" y="526.8" type="curve" smooth="yes"/>
      <point x="425.4" y="632"/>
      <point x="365.6" y="692"/>
    </contour>
    <contour>
      <point x="260.2" y="359.4" type="curve" smooth="yes"/>
      <point x="148.6" y="359.4"/>
      <point x="74.4" y="290.4"/>
      <point x="74.4" y="183.8" type="curve" smooth="yes"/>
      <point x="74.4" y="69.2"/>
      <point x="135.4" y="11.4"/>
      <point x="259" y="11.4" type="curve" smooth="yes"/>
      <point x="389.6" y="11.4"/>
      <point x="448.6" y="67.4"/>
      <point x="448.6" y="188.6" type="curve" smooth="yes"/>
      <point x="448.6" y="295.4"/>
      <point x="376.6" y="359.4"/>
    </contour>
  </outline>
</glyph>
<glyph name="nine" format="2">
  <advance width="523"/>
  <unicode hex="0039"/>
  <outline>
    <contour>
      <point x="271.4" y="716" type="curve" smooth="yes"/>
      <point x="418.8" y="716"/>
      <point x="476.6" y="617.2"/>
      <point x="476.6" y="435.4" type="curve" smooth="yes"/>
      <point x="476.6" y="136.4"/>
      <point x="415.2" y="-8"/>
      <point x="237" y="-8" type="curve" smooth="yes"/>
      <point x="169.4" y="-8"/>
      <point x="103.6" y="12.8"/>
      <point x="63.2" y="41.2" type="curve"/>
      <point x="63.8" y="54.6" type="line"/>
      <point x="122.6" y="17.8"/>
      <point x="191" y="2.6"/>
      <point x="255.4" y="2.6" type="curve" smooth="yes"/>
      <point x="400.4" y="2.6"/>
      <point x="465.2" y="119.4"/>
      <point x="465.2" y="390.4" type="curve"/>
      <point x="419.6" y="298.4"/>
      <point x="369" y="263.2"/>
      <point x="290.4" y="263.2" type="curve" smooth="yes"/>
      <point x="165" y="263.2"/>
      <point x="62.4" y="347.4"/>
      <point x="62.4" y="483.2" type="curve" smooth="yes"/>
      <point x="62.4" y="625.2"/>
      <point x="134.6" y="716"/>
    </contour>
    <contour>
      <point x="267.2" y="709.6" type="curve" smooth="yes"/>
      <point x="149.8" y="709.6"/>
      <point x="75.2" y="619.6"/>
      <point x="75.2" y="488" type="curve" smooth="yes"/>
      <point x="75.2" y="355.2"/>
      <point x="133.6" y="284.8"/>
      <point x="266.6" y="284.8" type="curve" smooth="yes"/>
      <point x="389.4" y="284.8"/>
      <point x="463.8" y="366.8"/>
      <point x="463.8" y="487.4" type="curve" smooth="yes"/>
      <point x="463.8" y="630.4"/>
      <point x="396" y="709.6"/>
    </contour>
  </outline>
</glyph>
<glyph name="colon" format="2">
  <advance width="228"/>
  <unicode hex="003A"/>
  <outline>
    <contour>
      <point x="168" y="793.8" type="curve" smooth="yes"/>
      <point x="227.2" y="763.2"/>
      <point x="244.6" y="694.8"/>
      <point x="214" y="637.2" type="curve" smooth="yes"/>
      <point x="183.4" y="579.6"/>
      <point x="115.6" y="561.6"/>
      <point x="56.4" y="592.2" type="curve" smooth="yes"/>
      <point x="-1.2" y="622.8"/>
      <point x="-18.2" y="691.2"/>
      <point x="12.4" y="748.8" type="curve" smooth="yes"/>
      <point x="43" y="806.4"/>
      <point x="110.4" y="824.4"/>
    </contour>
    <contour>
      <point x="168" y="487.8" type="curve" smooth="yes"/>
      <point x="227.2" y="457.2"/>
      <point x="244.6" y="388.8"/>
      <point x="214" y="331.2" type="curve" smooth="yes"/>
      <point x="183.4" y="273.6"/>
      <point x="115.6" y="255.6"/>
      <point x="56.4" y="286.2" type="curve" smooth="yes"/>
      <point x="-1.2" y="316.8"/>
      <point x="-18.2" y="385.2"/>
      <point x="12.4" y="442.8" type="curve" smooth="yes"/>
      <point x="43" y="500.4"/>
      <point x="110.4" y="518.4"/>
    </contour>
  </outline>
</glyph>
<glyph name="semicolon" format="2">
  <advance width="111"/>
  <unicode hex="003B"/>
  <outline>
    <component base="comma" xOffset="28.8"/>
    <contour>
      <point x="108.8" y="1143.8" type="curve" smooth="yes"/>
      <point x="168" y="1113.2"/>
      <point x="185.4" y="1044.8"/>
      <point x="154.8" y="987.2" type="curve" smooth="yes"/>
      <point x="124.2" y="929.6"/>
      <point x="56.4" y="911.6"/>
      <point x="-2.8" y="942.2" type="curve" smooth="yes"/>
      <point x="-60.4" y="972.8"/>
      <point x="-77.4" y="1041.2"/>
      <point x="-46.8" y="1098.8" type="curve" smooth="yes"/>
      <point x="-16.2" y="1156.4"/>
      <point x="51.2" y="1174.4"/>
    </contour>
  </outline>
</glyph>
<glyph name="question" format="2">
  <advance width="476"/>
  <unicode hex="003F"/>
  <outline>
    <contour>
      <point x="209.2" y="732" type="curve"/>
      <point x="175.4" y="732"/>
      <point x="400.4" y="757.6"/>
      <point x="400.4" y="567.4" type="curve" smooth="yes"/>
      <point x="400.4" y="535.2"/>
      <point x="387.6" y="484.4"/>
      <point x="372.8" y="459.6" type="curve"/>
      <point x="212.4" y="312.4"/>
      <point x="204.6" y="308.4"/>
      <point x="204.6" y="203.2" type="curve" smooth="yes"/>
      <point x="204.6" y="185.2"/>
      <point x="207.8" y="165"/>
      <point x="212.6" y="152" type="curve"/>
      <point x="208.2" y="151.8" type="line"/>
      <point x="202.6" y="181"/>
      <point x="203" y="198"/>
      <point x="203" y="213.4" type="curve" smooth="yes"/>
      <point x="203" y="333"/>
      <point x="281.2" y="377.8"/>
      <point x="366.6" y="462" type="curve"/>
      <point x="365.4" y="476.2"/>
      <point x="385" y="522"/>
      <point x="385" y="575.4" type="curve" smooth="yes"/>
      <point x="385" y="667"/>
      <point x="335.2" y="714.2"/>
      <point x="222.4" y="714.2" type="curve" smooth="yes"/>
      <point x="169.4" y="714.2"/>
      <point x="120.6" y="699"/>
      <point x="52.8" y="646" type="curve"/>
      <point x="48.8" y="668.6" type="line"/>
      <point x="103.6" y="711.8"/>
      <point x="162.8" y="732"/>
    </contour>
    <contour>
      <point x="221.2" y="72.8" type="curve" smooth="yes"/>
      <point x="246.2" y="72.8"/>
      <point x="261.2" y="52.8"/>
      <point x="261.2" y="32.8" type="curve" smooth="yes"/>
      <point x="261.2" y="11.8"/>
      <point x="245.8" y="-6.4"/>
      <point x="221.2" y="-6.4" type="curve" smooth="yes"/>
      <point x="195.2" y="-6.4"/>
      <point x="182" y="12.2"/>
      <point x="182" y="32.8" type="curve" smooth="yes"/>
      <point x="182" y="51.8"/>
      <point x="194.2" y="72.8"/>
    </contour>
  </outline>
</glyph>
<glyph name="at" format="2">
  <advance width="913"/>
  <unicode hex="0040"/>
  <outline>
    <contour>
      <point x="467.2" y="785.6" type="curve" smooth="yes"/>
      <point x="682.4" y="785.6"/>
      <point x="863.6" y="634.4"/>
      <point x="863.6" y="381.6" type="curve" smooth="yes"/>
      <point x="863.6" y="262.8"/>
      <point x="832.2" y="193.6"/>
      <point x="755" y="125" type="curve"/>
      <point x="728.4" y="132" type="line"/>
      <point x="574.6" y="218.2" type="line"/>
      <point x="533" y="162.4"/>
      <point x="490.8" y="135.2"/>
      <point x="436" y="135.2" type="curve" smooth="yes"/>
      <point x="321.4" y="135.2"/>
      <point x="271.6" y="214.4"/>
      <point x="271.6" y="317" type="curve" smooth="yes"/>
      <point x="271.6" y="484"/>
      <point x="394.2" y="581.8"/>
      <point x="501" y="581.8" type="curve" smooth="yes"/>
      <point x="548.6" y="581.8"/>
      <point x="604.4" y="556.4"/>
      <point x="625.6" y="510.6" type="curve"/>
      <point x="637.4" y="570.6" type="line"/>
      <point x="670.8" y="570.6" type="line"/>
      <point x="627" y="243.8" type="line"/>
      <point x="753.8" y="163.6" type="line"/>
      <point x="808" y="240.8"/>
      <point x="833.2" y="310.8"/>
      <point x="833.2" y="395.2" type="curve" smooth="yes"/>
      <point x="833.2" y="642.2"/>
      <point x="636.2" y="757.4"/>
      <point x="472" y="757.4" type="curve" smooth="yes"/>
      <point x="292.8" y="757.4"/>
      <point x="90.2" y="654.2"/>
      <point x="90.2" y="371.2" type="curve" smooth="yes"/>
      <point x="90.2" y="120.4"/>
      <point x="272" y="-51"/>
      <point x="493" y="-51" type="curve" smooth="yes"/>
      <point x="558" y="-51"/>
      <point x="650.4" y="-40.6"/>
      <point x="676.2" y="-28.8" type="curve"/>
      <point x="676.2" y="-58.4" type="line"/>
      <point x="614.2" y="-70.8"/>
      <point x="530.2" y="-81.6"/>
      <point x="489" y="-81.6" type="curve" smooth="yes"/>
      <point x="305.4" y="-81.6"/>
      <point x="59.2" y="43.2"/>
      <point x="59.2" y="374.8" type="curve" smooth="yes"/>
      <point x="59.2" y="684"/>
      <point x="312" y="785.6"/>
    </contour>
    <contour>
      <point x="481.4" y="547.8" type="curve" smooth="yes"/>
      <point x="348.4" y="547.8"/>
      <point x="300.4" y="428.4"/>
      <point x="300.4" y="322" type="curve" smooth="yes"/>
      <point x="300.4" y="307.6"/>
      <point x="298.2" y="166.8"/>
      <point x="446.2" y="166.8" type="curve" smooth="yes"/>
      <point x="501.8" y="166.8"/>
      <point x="597.4" y="184.2"/>
      <point x="616.6" y="370.6" type="curve" smooth="yes"/>
      <point x="624.4" y="453.6" type="line"/>
      <point x="600.8" y="518.6"/>
      <point x="544.4" y="547.8"/>
    </contour>
  </outline>
</glyph>
<glyph name="K" format="2">
  <advance width="530"/>
  <unicode hex="004B"/>
  <outline>
    <contour>
      <point x="100.83" y="708" type="line"/>
      <point x="132.678" y="708" type="line"/>
      <point x="132.872" y="373.134" type="line"/>
      <point x="152.194" y="373.134" type="line"/>
      <point x="459.6" y="708" type="line"/>
      <point x="497.6" y="708" type="line"/>
      <point x="181.6" y="358.4" type="line"/>
      <point x="498" y="0" type="line"/>
      <point x="461.2" y="0" type="line"/>
      <point x="152" y="343.881" type="line"/>
      <point x="132.678" y="343.881" type="line"/>
      <point x="132.678" y="0" type="line"/>
      <point x="100.83" y="0" type="line"/>
    </contour>
  </outline>
</glyph>
<glyph name="O" format="2">
  <advance width="633"/>
  <unicode hex="004F"/>
  <anchor x="326" y="881" name="AccentCenter"/>
  <outline>
    <contour>
      <point x="318.04" y="715.991" type="curve" smooth="yes"/>
      <point x="478.917" y="715.797"/>
      <point x="568.142" y="579.35"/>
      <point x="568.142" y="353.614" type="curve" smooth="yes"/>
      <point x="568.142" y="127.877"/>
      <point x="478.664" y="-8.0393"/>
      <point x="318.04" y="-8.0239" type="curve" smooth="yes"/>
      <point x="156.11" y="-8.0084"/>
      <point x="64.1379" y="127.877"/>
      <point x="64.1376" y="353.614" type="curve" smooth="yes"/>
      <point x="64.1373" y="579.35"/>
      <point x="155.868" y="716.187"/>
    </contour>
    <contour>
      <point x="318.04" y="687.895" type="curve" smooth="yes"/>
      <point x="171.753" y="687.895"/>
      <point x="96" y="552.056"/>
      <point x="96" y="353.614" type="curve" smooth="yes"/>
      <point x="96" y="155.171"/>
      <point x="171.902" y="20.0528"/>
      <point x="318.039" y="19.8058" type="curve" smooth="yes"/>
      <point x="462.899" y="19.561"/>
      <point x="536" y="150.56"/>
      <point x="536" y="353.614" type="curve" smooth="yes"/>
      <point x="536" y="556.667"/>
      <point x="463.062" y="687.895"/>
    </contour>
  </outline>
</glyph>
<glyph name="P" format="2">
  <advance width="583"/>
  <unicode hex="0050"/>
  <outline>
    <contour>
      <point x="132.654" y="679.874" type="line"/>
      <point x="132.654" y="309.836" type="line"/>
      <point x="298.2" y="309.836" type="line" smooth="yes"/>
      <point x="408.583" y="309.836"/>
      <point x="486.566" y="356.551"/>
      <point x="486.566" y="507.2" type="curve" smooth="yes"/>
      <point x="486.566" y="622.455"/>
      <point x="414.929" y="679.875"/>
      <point x="327" y="679.875" type="curve" smooth="yes"/>
    </contour>
    <contour>
      <point x="100.69" y="708" type="line"/>
      <point x="315.6" y="708" type="line" smooth="yes"/>
      <point x="443.047" y="708"/>
      <point x="519" y="633.81"/>
      <point x="519" y="507.2" type="curve" smooth="yes"/>
      <point x="519" y="368.6"/>
      <point x="439.613" y="282.032"/>
      <point x="303" y="282.032" type="curve" smooth="yes"/>
      <point x="132.654" y="282.032" type="line"/>
      <point x="132.654" y="0" type="line"/>
      <point x="100.689" y="0" type="line"/>
    </contour>
  </outline>
</glyph>
<glyph name="R" format="2">
  <advance width="586"/>
  <unicode hex="0052"/>
  <outline>
    <contour>
      <point x="132.899" y="680.265" type="line"/>
      <point x="132.899" y="347.128" type="line"/>
      <point x="308.989" y="347.128" type="line" smooth="yes"/>
      <point x="399.443" y="347.128"/>
      <point x="488.165" y="390.378"/>
      <point x="488.165" y="513.108" type="curve" smooth="yes"/>
      <point x="488.165" y="627.995"/>
      <point x="428.289" y="680.265"/>
      <point x="317" y="680.265" type="curve" smooth="yes"/>
    </contour>
    <contour>
      <point x="100.586" y="708" type="line"/>
      <point x="314" y="708" type="line" smooth="yes"/>
      <point x="442.097" y="708"/>
      <point x="520.332" y="643.003"/>
      <point x="520.332" y="513.108" type="curve" smooth="yes"/>
      <point x="520.332" y="381.627"/>
      <point x="424.086" y="330.148"/>
      <point x="347.912" y="320.775" type="curve"/>
      <point x="526" y="0" type="line"/>
      <point x="490.207" y="0.1716" type="line"/>
      <point x="316.407" y="318.907" type="line"/>
      <point x="132.899" y="318.708" type="line"/>
      <point x="132.899" y="0" type="line"/>
      <point x="100.586" y="0" type="line"/>
    </contour>
  </outline>
</glyph>
<glyph name="V" format="2">
  <advance width="606"/>
  <unicode hex="0056"/>
  <outline>
    <contour>
      <point x="46.4" y="708" type="line"/>
      <point x="73.4075" y="708" type="line"/>
      <point x="302.6" y="32.4954" type="line"/>
      <point x="533.084" y="708" type="line"/>
      <point x="559.8" y="708" type="line"/>
      <point x="319.2" y="0" type="line"/>
      <point x="286" y="0" type="line"/>
    </contour>
  </outline>
</glyph>
<glyph name="W" format="2">
  <advance width="770"/>
  <unicode hex="0057"/>
  <outline>
    <contour>
      <point x="46.4" y="708.4" type="line"/>
      <point x="67.2" y="708.4" type="line"/>
      <point x="219.8" y="30.8" type="line"/>
      <point x="378.4" y="708" type="line"/>
      <point x="399.6" y="708" type="line"/>
      <point x="551.2" y="31.4" type="line"/>
      <point x="702.8" y="708" type="line"/>
      <point x="723.6" y="708" type="line"/>
      <point x="559" y="0" type="line"/>
      <point x="541.4" y="0" type="line"/>
      <point x="389.6" y="690.2" type="line"/>
      <point x="232.6" y="0" type="line"/>
      <point x="211" y="0" type="line"/>
    </contour>
  </outline>
</glyph>
<glyph name="Y" format="2">
  <advance width="597"/>
  <unicode hex="0059"/>
  <anchor x="282.8" y="880" name="AccentCenter"/>
  <outline>
    <contour>
      <point x="46.4" y="708" type="line"/>
      <point x="84.8" y="708" type="line"/>
      <point x="300.2" y="303.6" type="line"/>
      <point x="513.2" y="708" type="line"/>
      <point x="551" y="708" type="line"/>
      <point x="305.6" y="268.4" type="line"/>
      <point x="305.6" y="0" type="line"/>
      <point x="296" y="0" type="line"/>
      <point x="296" y="272.2" type="line"/>
    </contour>
  </outline>
</glyph>
<glyph name="Z" format="2">
  <advance width="582"/>
  <unicode hex="005A"/>
  <outline>
    <contour>
      <point x="76.8" y="708" type="line"/>
      <point x="497.2" y="708" type="line"/>
      <point x="497.2" y="682.4" type="line"/>
      <point x="74.8" y="6.4" type="line"/>
      <point x="505.2" y="6.4" type="line"/>
      <point x="505.2" y="0" type="line"/>
      <point x="76.8" y="0" type="line"/>
      <point x="76.8" y="25.6" type="line"/>
      <point x="497.4" y="701.6" type="line"/>
      <point x="76.8" y="701.6" type="line"/>
    </contour>
  </outline>
</glyph>
<glyph name="bracketleft" format="2">
  <advance width="292"/>
  <unicode hex="005B"/>
  <outline>
    <contour>
      <point x="65.8" y="819" type="line"/>
      <point x="247" y="819" type="line"/>
      <point x="247" y="798.2" type="line"/>
      <point x="97.8" y="798.2" type="line"/>
      <point x="97.8" y="-48" type="line"/>
      <point x="247" y="-48" type="line"/>
      <point x="247" y="-64" type="line"/>
      <point x="65.8" y="-64" type="line"/>
    </contour>
  </outline>
</glyph>
<glyph name="a" format="2">
  <advance width="498"/>
  <unicode hex="0061"/>
  <anchor x="246" y="687" name="AccentCenter"/>
  <anchor x="236" y="687" name="Ring"/>
  <outline>
    <contour>
      <point x="240" y="528" type="curve" smooth="yes"/>
      <point x="342" y="528"/>
      <point x="407" y="474"/>
      <point x="407" y="345" type="curve" smooth="yes"/>
      <point x="407" y="91" type="line" smooth="yes"/>
      <point x="407" y="91"/>
      <point x="468" y="22"/>
      <point x="475" y="14" type="curve"/>
      <point x="452" y="-8" type="line"/>
      <point x="445" y="0"/>
      <point x="381" y="74"/>
      <point x="377" y="79" type="curve"/>
      <point x="345" y="24"/>
      <point x="295" y="-8"/>
      <point x="203" y="-8" type="curve" smooth="yes"/>
      <point x="109" y="-8"/>
      <point x="48" y="44"/>
      <point x="48" y="138" type="curve" smooth="yes"/>
      <point x="48" y="247"/>
      <point x="124" y="300"/>
      <point x="245" y="300" type="curve" smooth="yes"/>
      <point x="375" y="300" type="line"/>
      <point x="375" y="359" type="line" smooth="yes"/>
      <point x="375" y="453"/>
      <point x="325" y="500"/>
      <point x="240" y="500" type="curve" smooth="yes"/>
      <point x="186" y="500"/>
      <point x="131" y="476"/>
      <point x="96" y="444" type="curve"/>
      <point x="81" y="466" type="line"/>
      <point x="121" y="500"/>
      <point x="171" y="528"/>
    </contour>
    <contour>
      <point x="375" y="272" type="line"/>
      <point x="242" y="272" type="line" smooth="yes"/>
      <point x="125" y="272"/>
      <point x="80" y="222"/>
      <point x="80" y="138" type="curve" smooth="yes"/>
      <point x="80" y="58"/>
      <point x="123" y="20"/>
      <point x="210" y="20" type="curve" smooth="yes"/>
      <point x="279" y="20"/>
      <point x="346" y="51"/>
      <point x="375" y="119" type="curve"/>
    </contour>
  </outline>
</glyph>
<glyph name="d" format="2">
  <advance width="577"/>
  <unicode hex="0064"/>
  <outline>
    <contour>
      <point x="445" y="724" type="line"/>
      <point x="477" y="724" type="line"/>
      <point x="477" y="0" type="line"/>
      <point x="452" y="0" type="line"/>
      <point x="446" y="100" type="line"/>
      <point x="423" y="47"/>
      <point x="361" y="-8"/>
      <point x="273" y="-8" type="curve" smooth="yes"/>
      <point x="151" y="-8"/>
      <point x="64" y="71"/>
      <point x="64" y="267" type="curve" smooth="yes"/>
      <point x="64" y="403"/>
      <point x="124" y="528"/>
      <point x="279" y="528" type="curve" smooth="yes"/>
      <point x="383" y="528"/>
      <point x="443" y="438"/>
      <point x="445" y="432" type="curve"/>
    </contour>
    <contour>
      <point x="278" y="500" type="curve" smooth="yes"/>
      <point x="140" y="500"/>
      <point x="96" y="368"/>
      <point x="96" y="264" type="curve" smooth="yes"/>
      <point x="96" y="89"/>
      <point x="173" y="20"/>
      <point x="281" y="20" type="curve" smooth="yes"/>
      <point x="365" y="20"/>
      <point x="425" y="99"/>
      <point x="445" y="141" type="curve"/>
      <point x="445" y="388" type="line"/>
      <point x="406" y="453"/>
      <point x="354" y="500"/>
    </contour>
  </outline>
</glyph>
<glyph name="p" format="2">
  <advance width="577"/>
  <unicode hex="0070"/>
  <outline>
    <contour>
      <point x="296.133" y="500.217" type="curve" smooth="yes"/>
      <point x="214.989" y="500.217"/>
      <point x="159.725" y="441.934"/>
      <point x="132.197" y="397.6" type="curve"/>
      <point x="132.193" y="126.579" type="line"/>
      <point x="174.012" y="56.4803"/>
      <point x="216.117" y="19.6891"/>
      <point x="300" y="19.6891" type="curve" smooth="yes"/>
      <point x="410.818" y="19.6891"/>
      <point x="480.79" y="117.79"/>
      <point x="480.79" y="264.8" type="curve" smooth="yes"/>
      <point x="480.79" y="421.128"/>
      <point x="406.618" y="500.217"/>
    </contour>
    <contour>
      <point x="100.385" y="520" type="line"/>
      <point x="123.247" y="520" type="line"/>
      <point x="132.197" y="436.247" type="line"/>
      <point x="173.407" y="491.69"/>
      <point x="219.861" y="528"/>
      <point x="306.933" y="528" type="curve" smooth="yes"/>
      <point x="432.825" y="528"/>
      <point x="512.676" y="437.294"/>
      <point x="512.676" y="260.6" type="curve" smooth="yes"/>
      <point x="512.676" y="97.5524"/>
      <point x="423.984" y="-8"/>
      <point x="303" y="-8" type="curve" smooth="yes"/>
      <point x="258.092" y="-8"/>
      <point x="181.292" y="7.94623"/>
      <point x="132.197" y="78.9094" type="curve"/>
      <point x="132.197" y="-191.6" type="line"/>
      <point x="100.385" y="-191.6" type="line"/>
    </contour>
  </outline>
</glyph>
<glyph name="q" format="2">
  <advance width="567"/>
  <unicode hex="0071"/>
  <outline>
    <contour>
      <point x="261.6" y="509.6" type="curve" smooth="yes"/>
      <point x="130" y="509.6"/>
      <point x="70.4" y="435"/>
      <point x="70.4" y="267.2" type="curve" smooth="yes"/>
      <point x="70.4" y="112.8"/>
      <point x="145" y="12.8"/>
      <point x="259.2" y="12.8" type="curve" smooth="yes"/>
      <point x="351.2" y="12.8"/>
      <point x="421" y="59.8"/>
      <point x="443.2" y="135.8" type="curve"/>
      <point x="443.2" y="396" type="line"/>
      <point x="404.6" y="467.2"/>
      <point x="335.4" y="509.6"/>
    </contour>
    <contour>
      <point x="449.2" y="520" type="line"/>
      <point x="458.4" y="520" type="line"/>
      <point x="458.4" y="-191" type="line"/>
      <point x="443.2" y="-191" type="line"/>
      <point x="443.2" y="81.8" type="line"/>
      <point x="363.2" y="15.2"/>
      <point x="315.2" y="-8"/>
      <point x="251.4" y="-8" type="curve" smooth="yes"/>
      <point x="123.4" y="-8"/>
      <point x="57.6" y="84"/>
      <point x="57.6" y="260.6" type="curve" smooth="yes"/>
      <point x="57.6" y="444.6"/>
      <point x="118" y="528"/>
      <point x="258.2" y="528" type="curve" smooth="yes"/>
      <point x="321.2" y="528"/>
      <point x="381" y="496.2"/>
      <point x="449.6" y="427.8" type="curve"/>
    </contour>
  </outline>
</glyph>
<glyph name="v" format="2">
  <advance width="512"/>
  <unicode hex="0076"/>
  <outline>
    <contour>
      <point x="46.4" y="520" type="line"/>
      <point x="76" y="520" type="line"/>
      <point x="259" y="19.4" type="line"/>
      <point x="436" y="520" type="line"/>
      <point x="465.6" y="520" type="line"/>
      <point x="270.4" y="0" type="line"/>
      <point x="247.6" y="0" type="line"/>
    </contour>
  </outline>
</glyph>
<glyph name="w" format="2">
  <advance width="713"/>
  <unicode hex="0077"/>
  <outline>
    <contour>
      <point x="59.2" y="520" type="line"/>
      <point x="86.4" y="520" type="line"/>
      <point x="199.2" y="-18.2" type="line"/>
      <point x="342" y="520" type="line"/>
      <point x="372.8" y="520" type="line"/>
      <point x="506.4" y="-12.6" type="line"/>
      <point x="626.4" y="520" type="line"/>
      <point x="654" y="520" type="line"/>
      <point x="528" y="0" type="line"/>
      <point x="489.6" y="0" type="line"/>
      <point x="358" y="518.6" type="line"/>
      <point x="217.6" y="0" type="line"/>
      <point x="180.4" y="0" type="line"/>
    </contour>
  </outline>
</glyph>
<glyph name="x" format="2">
  <advance width="514"/>
  <unicode hex="0078"/>
  <outline>
    <contour>
      <point x="43.2" y="520" type="line"/>
      <point x="79.8" y="520" type="line"/>
      <point x="256.4" y="287.6" type="line"/>
      <point x="430.8" y="520" type="line"/>
      <point x="470.4" y="520" type="line"/>
      <point x="263" y="260" type="line"/>
      <point x="470.4" y="0" type="line"/>
      <point x="430.8" y="0" type="line"/>
      <point x="255.2" y="235" type="line"/>
      <point x="79.8" y="0" type="line"/>
      <point x="43.2" y="0" type="line"/>
      <point x="252.8" y="260" type="line"/>
    </contour>
  </outline>
</glyph>
<glyph name="y" format="2">
  <advance width="532"/>
  <unicode hex="0079"/>
  <anchor x="293.2" y="687" name="AccentCenter"/>
  <outline>
    <contour>
      <point x="65.6" y="520" type="line"/>
      <point x="76.4" y="520" type="line"/>
      <point x="263.4" y="32.8" type="line"/>
      <point x="270" y="25.2" type="line"/>
      <point x="272.6" y="32.8" type="line"/>
      <point x="456" y="520" type="line"/>
      <point x="483.6" y="520" type="line"/>
      <point x="200" y="-192.6" type="line"/>
      <point x="178.4" y="-192.6" type="line"/>
      <point x="262.2" y="19.4" type="line"/>
    </contour>
  </outline>
</glyph>
<glyph name="braceleft" format="2">
  <advance width="263"/>
  <unicode hex="007B"/>
  <outline>
    <contour>
      <point x="254.8" y="811" type="curve"/>
      <point x="254.8" y="791.8" type="line"/>
      <point x="177.6" y="791.8"/>
      <point x="126" y="712.8"/>
      <point x="130.8" y="644.4" type="curve"/>
      <point x="167.6" y="510.8" type="line"/>
      <point x="167.6" y="482.4"/>
      <point x="176.6" y="418.8"/>
      <point x="111.4" y="371.2" type="curve"/>
      <point x="170" y="345.4"/>
      <point x="167.6" y="263.4"/>
      <point x="167.6" y="252.8" type="curve"/>
      <point x="130.8" y="96.2" type="line"/>
      <point x="129" y="17.2"/>
      <point x="171.4" y="-48"/>
      <point x="254.8" y="-48" type="curve"/>
      <point x="254.8" y="-68.8" type="line"/>
      <point x="176.4" y="-67.2"/>
      <point x="93.4" y="4"/>
      <point x="101.2" y="99.4" type="curve"/>
      <point x="133.2" y="267.6" type="line"/>
      <point x="137.4" y="320.2"/>
      <point x="77.6" y="365.6"/>
      <point x="32.4" y="365.6" type="curve"/>
      <point x="32.4" y="381.8" type="line"/>
      <point x="90" y="381.8"/>
      <point x="138" y="440"/>
      <point x="133.2" y="499.6" type="curve"/>
      <point x="97.6" y="643.6" type="line"/>
      <point x="90.4" y="719.2"/>
      <point x="156.4" y="811"/>
    </contour>
  </outline>
</glyph>
<glyph name="braceright" format="2">
  <advance width="263"/>
  <unicode hex="007D"/>
  <outline>
    <contour>
      <point x="32.4" y="811" type="line"/>
      <point x="130.8" y="811"/>
      <point x="196.8" y="719.2"/>
      <point x="189.6" y="643.6" type="curve"/>
      <point x="154" y="499.6" type="line"/>
      <point x="149.2" y="440"/>
      <point x="197.2" y="381.8"/>
      <point x="254.8" y="381.8" type="curve"/>
      <point x="254.8" y="365.6" type="line"/>
      <point x="209.6" y="365.6"/>
      <point x="149.8" y="320.2"/>
      <point x="154" y="267.6" type="curve"/>
      <point x="186" y="99.4" type="line"/>
      <point x="193.8" y="4"/>
      <point x="110.8" y="-67.2"/>
      <point x="32.4" y="-68.8" type="curve"/>
      <point x="32.4" y="-48" type="line"/>
      <point x="115.8" y="-48"/>
      <point x="158.2" y="17.2"/>
      <point x="156.4" y="96.2" type="curve"/>
      <point x="119.6" y="252.8" type="line"/>
      <point x="119.6" y="263.4"/>
      <point x="117.2" y="345.4"/>
      <point x="175.8" y="371.2" type="curve"/>
      <point x="110.6" y="418.8"/>
      <point x="119.6" y="482.4"/>
      <point x="119.6" y="510.8" type="curve"/>
      <point x="156.4" y="644.4" type="line"/>
      <point x="161.2" y="712.8"/>
      <point x="109.6" y="791.8"/>
      <point x="32.4" y="791.8" type="curve"/>
    </contour>
  </outline>
</glyph>
<glyph name="cent" format="2">
  <advance width="461"/>
  <unicode hex="00A2"/>
  <outline>
    <component base="c"/>
    <contour>
      <point x="217.8" y="618" type="line"/>
      <point x="275.4" y="618" type="line"/>
      <point x="275.4" y="-94" type="line"/>
      <point x="217.8" y="-94" type="line"/>
    </contour>
  </outline>
</glyph>
<glyph name="AE" format="2">
  <advance width="887"/>
  <unicode hex="00C6"/>
  <outline>
    <contour>
      <point x="387.6" y="708" type="line"/>
      <point x="815.6" y="708" type="line"/>
      <point x="815.6" y="693" type="line"/>
      <point x="409.4" y="693" type="line"/>
      <point x="409.4" y="402.4" type="line"/>
      <point x="737.6" y="402.4" type="line"/>
      <point x="737.6" y="381" type="line"/>
      <point x="409.4" y="381" type="line"/>
      <point x="409.4" y="15.6" type="line"/>
      <point x="815.6" y="15.6" type="line"/>
      <point x="815.6" y="0" type="line"/>
      <point x="403" y="0" type="line"/>
      <point x="403" y="199.4" type="line"/>
      <point x="163.8" y="199.4" type="line"/>
      <point x="70" y="0" type="line"/>
      <point x="60" y="0" type="line"/>
    </contour>
    <contour>
      <point x="403" y="687.2" type="line"/>
      <point x="180.4" y="214.4" type="line"/>
      <point x="403" y="214.4" type="line"/>
    </contour>
  </outline>
</glyph>
<glyph name="Thorn" format="2">
  <advance width="519"/>
  <unicode hex="00DE"/>
  <outline>
    <contour>
      <point x="99.2" y="708" type="line"/>
      <point x="112" y="708" type="line"/>
      <point x="112" y="556.8" type="line"/>
      <point x="267.6" y="556.8" type="line" smooth="yes"/>
      <point x="357.4" y="556.8"/>
      <point x="453.6" y="479.6"/>
      <point x="453.6" y="353.6" type="curve" smooth="yes"/>
      <point x="453.6" y="236"/>
      <point x="348.8" y="160.6"/>
      <point x="261.6" y="160.6" type="curve" smooth="yes"/>
      <point x="112" y="160.6" type="line"/>
      <point x="112" y="0" type="line"/>
      <point x="99.2" y="0" type="line"/>
    </contour>
    <contour>
      <point x="112" y="538.4" type="line"/>
      <point x="112" y="182.2" type="line"/>
      <point x="264" y="182.2" type="line" smooth="yes"/>
      <point x="373.6" y="182.2"/>
      <point x="438.4" y="251.2"/>
      <point x="438.4" y="355.2" type="curve" smooth="yes"/>
      <point x="438.4" y="465"/>
      <point x="381.4" y="538.4"/>
      <point x="273.6" y="538.4" type="curve" smooth="yes"/>
    </contour>
  </outline>
</glyph>
<glyph name="eth" format="2">
  <advance width="576"/>
  <unicode hex="00F0"/>
  <outline>
    <contour>
      <point x="212" y="716" type="curve"/>
      <point x="244.4" y="716" type="line"/>
      <point x="284.2" y="691.4"/>
      <point x="313.4" y="670"/>
      <point x="331.4" y="650.8" type="curve"/>
      <point x="407.2" y="704.8" type="line"/>
      <point x="407.2" y="670.4" type="line"/>
      <point x="344.6" y="637.4" type="line"/>
      <point x="445.2" y="542.4"/>
      <point x="500.8" y="407.2"/>
      <point x="500.8" y="262.2" type="curve" smooth="yes"/>
      <point x="500.8" y="109.6"/>
      <point x="411.4" y="-7"/>
      <point x="297.8" y="-7" type="curve" smooth="yes"/>
      <point x="169.2" y="-7"/>
      <point x="75.2" y="108.4"/>
      <point x="75.2" y="275.6" type="curve" smooth="yes"/>
      <point x="75.2" y="408.2"/>
      <point x="182" y="528"/>
      <point x="300.2" y="528" type="curve" smooth="yes"/>
      <point x="359.4" y="528"/>
      <point x="405.8" y="512.4"/>
      <point x="443.4" y="477.6" type="curve"/>
      <point x="428.2" y="517.4"/>
      <point x="395.2" y="562"/>
      <point x="345.4" y="611" type="curve"/>
      <point x="248.6" y="544.2" type="line"/>
      <point x="245.4" y="574.4" type="line"/>
      <point x="333" y="622.6" type="line"/>
      <point x="288.8" y="665"/>
      <point x="249.4" y="695.4"/>
    </contour>
    <contour>
      <point x="287" y="505" type="curve" smooth="yes"/>
      <point x="161" y="505"/>
      <point x="81.6" y="412.8"/>
      <point x="81.6" y="265.8" type="curve" smooth="yes"/>
      <point x="81.6" y="99.2"/>
      <point x="161.6" y="1"/>
      <point x="297.6" y="1" type="curve" smooth="yes"/>
      <point x="416.2" y="1"/>
      <point x="494.4" y="99.4"/>
      <point x="494.4" y="248.8" type="curve" smooth="yes"/>
      <point x="494.4" y="339"/>
      <point x="478.6" y="408"/>
      <point x="446" y="448.6" type="curve"/>
      <point x="395" y="486.2"/>
      <point x="341.6" y="505"/>
    </contour>
  </outline>
</glyph>
<glyph name="oslash" format="2">
  <advance width="496"/>
  <unicode hex="00F8"/>
  <anchor x="267.4" y="687.6" name="AccentCenter"/>
  <outline>
    <component base="o"/>
    <contour>
      <point x="426.2" y="520" type="line"/>
      <point x="492.6" y="520" type="line"/>
      <point x="95" y="0" type="line"/>
      <point x="28.6" y="0" type="line"/>
    </contour>
  </outline>
</glyph>
<glyph name="acutecomb" format="2">
  <unicode hex="0301"/>
  <anchor x="0" y="830.4" name="_AccentCenter"/>
  <outline>
    <contour>
      <point x="66.6" y="932.2" type="line"/>
      <point x="113.6" y="908.4" type="line"/>
      <point x="-74.8" y="756.6" type="line"/>
      <point x="-103.8" y="778" type="line"/>
    </contour>
  </outline>
</glyph>
<glyph name="uni0302" format="2">
  <unicode hex="0302"/>
  <anchor x="0" y="830.4" name="_AccentCenter"/>
  <outline>
    <contour>
      <point x="-34.6" y="930" type="line"/>
      <point x="34.6" y="930" type="line"/>
      <point x="146" y="786" type="line"/>
      <point x="115.2" y="760.8" type="line"/>
      <point x="0" y="898.8" type="line"/>
      <point x="-110.4" y="760.8" type="line"/>
      <point x="-146" y="786" type="line"/>
    </contour>
  </outline>
</glyph>
<glyph name="tildecomb" format="2">
  <unicode hex="0303"/>
  <anchor x="0" y="851.6" name="_AccentCenter"/>
  <outline>
    <contour>
      <point x="-67" y="902.4" type="curve" smooth="yes"/>
      <point x="-10.4" y="902.4"/>
      <point x="37.6" y="829.8"/>
      <point x="63" y="829.8" type="curve" smooth="yes"/>
      <point x="99.8" y="829.8"/>
      <point x="105.8" y="855.4"/>
      <point x="107.4" y="897.8" type="curve"/>
      <point x="149.4" y="897.8" type="line"/>
      <point x="149.4" y="826.4"/>
      <point x="102" y="802.4"/>
      <point x="43.6" y="802.4" type="curve" smooth="yes"/>
      <point x="-27.8" y="802.4"/>
      <point x="-39" y="869.8"/>
      <point x="-78.4" y="869.8" type="curve" smooth="yes"/>
      <point x="-121.8" y="869.8"/>
      <point x="-130.6" y="845.2"/>
      <point x="-130.6" y="806.4" type="curve"/>
      <point x="-170.2" y="806.4" type="line"/>
      <point x="-170.2" y="864.8"/>
      <point x="-165.4" y="902.4"/>
    </contour>
  </outline>
</glyph>
<glyph name="uni0304" format="2">
  <unicode hex="0304"/>
  <anchor x="0" y="833" name="AccentCenter"/>
  <outline>
    <contour>
      <point x="-108" y="841" type="line"/>
      <point x="108" y="841" type="line"/>
      <point x="108" y="825" type="line"/>
      <point x="-108" y="825" type="line"/>
    </contour>
  </outline>
</glyph>
<glyph name="uni0308" format="2">
  <unicode hex="0308"/>
  <anchor x="0" y="843.8" name="_AccentCenter"/>
  <outline>
    <contour>
      <point x="-439.4" y="996" type="curve" smooth="yes"/>
      <point x="-364.8" y="996"/>
      <point x="-302" y="936.4"/>
      <point x="-302" y="857" type="curve" smooth="yes"/>
      <point x="-302" y="780.8"/>
      <point x="-363.2" y="719.6"/>
      <point x="-439.4" y="719.6" type="curve" smooth="yes"/>
      <point x="-517.2" y="719.6"/>
      <point x="-580" y="782.4"/>
      <point x="-580" y="857" type="curve" smooth="yes"/>
      <point x="-580" y="931.6"/>
      <point x="-518.8" y="996"/>
    </contour>
    <contour>
      <point x="106.6" y="996" type="curve" smooth="yes"/>
      <point x="181.2" y="996"/>
      <point x="244" y="936.4"/>
      <point x="244" y="857" type="curve" smooth="yes"/>
      <point x="244" y="780.8"/>
      <point x="182.8" y="719.6"/>
      <point x="106.6" y="719.6" type="curve" smooth="yes"/>
      <point x="28.8" y="719.6"/>
      <point x="-34" y="782.4"/>
      <point x="-34" y="857" type="curve" smooth="yes"/>
      <point x="-34" y="931.6"/>
      <point x="27.2" y="996"/>
    </contour>
  </outline>
</glyph>
<glyph name="uni030A" format="2">
  <unicode hex="030A"/>
  <outline>
    <contour>
      <point x="0" y="924.4" type="curve" smooth="yes"/>
      <point x="49" y="924.4"/>
      <point x="89.2" y="892"/>
      <point x="89.2" y="840" type="curve" smooth="yes"/>
      <point x="89.2" y="788"/>
      <point x="49" y="755.6"/>
      <point x="0" y="755.6" type="curve" smooth="yes"/>
      <point x="-49" y="755.6"/>
      <point x="-89.2" y="788"/>
      <point x="-89.2" y="840" type="curve" smooth="yes"/>
      <point x="-89.2" y="892"/>
      <point x="-49" y="924.4"/>
    </contour>
    <contour>
      <point x="0" y="889.6" type="curve" smooth="yes"/>
      <point x="-30.8" y="889.6"/>
      <point x="-55" y="869.6"/>
      <point x="-55" y="840" type="curve" smooth="yes"/>
      <point x="-55" y="810.4"/>
      <point x="-30.8" y="790.4"/>
      <point x="0" y="790.4" type="curve" smooth="yes"/>
      <point x="30.8" y="790.4"/>
      <point x="55" y="810.4"/>
      <point x="55" y="840" type="curve" smooth="yes"/>
      <point x="55" y="869.6"/>
      <point x="30.8" y="889.6"/>
    </contour>
  </outline>
</glyph>
